<svg xmlns="http://www.w3.org/2000/svg" width="21" height="20" viewBox="0 0 21 20">
  <g fill="none" fill-rule="evenodd" transform="translate(-3 -3)">
    <rect width="25" height="25" fill="none"/>
    <path fill="#000" d="M22.8828125,21.9257812 C23.0000006,22.0429693 23.0585938,22.1894522 23.0585938,22.3652344 C23.0585938,22.5410165 23.0000006,22.6874994 22.8828125,22.8046875 C22.7526035,22.9348965 22.6028654,23 22.4335938,23 C22.2643221,23 22.114584,22.9348965 21.984375,22.8046875 L15.9296875,16.7109375 C15.2395799,17.3098988 14.4583377,17.7786441 13.5859375,18.1171875 C12.7135373,18.4557309 11.7890674,18.625 10.8125,18.625 C9.73176543,18.625 8.71615059,18.4199239 7.765625,18.0097656 C6.81509941,17.5996073 5.98502959,17.0429723 5.27539062,16.3398438 C4.56575166,15.6367152 4.0091166,14.8099006 3.60546875,13.859375 C3.2018209,12.9088494 3,11.8932346 3,10.8125 C3,9.73176543 3.2018209,8.71615059 3.60546875,7.765625 C4.0091166,6.81509941 4.56575166,5.98828477 5.27539062,5.28515625 C5.98502959,4.58202773 6.81509941,4.02539268 7.765625,3.61523438 C8.71615059,3.20507607 9.73176543,3 10.8125,3 C11.8802137,3 12.8893182,3.20507607 13.8398437,3.61523438 C14.7903693,4.02539268 15.6204392,4.58202773 16.3300781,5.28515625 C17.0397171,5.98828477 17.5996073,6.81509941 18.0097656,7.765625 C18.4199239,8.71615059 18.625,9.73176543 18.625,10.8125 C18.625,11.7630256 18.4622412,12.6647093 18.1367188,13.5175781 C17.8111963,14.370447 17.3684924,15.1354133 16.8085938,15.8125 L22.8828125,21.9257812 Z M10.8125,17.3945312 C11.710942,17.3945312 12.5605429,17.2220069 13.3613281,16.8769531 C14.1621134,16.5318993 14.858721,16.0598988 15.4511719,15.4609375 C16.0436228,14.8619762 16.5123681,14.1653686 16.8574219,13.3710938 C17.2024757,12.5768189 17.375,11.7239629 17.375,10.8125 C17.375,9.90103711 17.2024757,9.04818105 16.8574219,8.25390625 C16.5123681,7.45963145 16.0436228,6.76302383 15.4511719,6.1640625 C14.858721,5.56510117 14.1621134,5.09310068 13.3613281,4.74804688 C12.5605429,4.40299307 11.710942,4.23046875 10.8125,4.23046875 C9.90103711,4.23046875 9.04492588,4.40299307 8.24414062,4.74804688 C7.44335537,5.09310068 6.74674775,5.56510117 6.15429688,6.1640625 C5.561846,6.76302383 5.09310068,7.45963145 4.74804688,8.25390625 C4.40299307,9.04818105 4.23046875,9.90103711 4.23046875,10.8125 C4.23046875,11.7239629 4.40299307,12.5768189 4.74804688,13.3710938 C5.09310068,14.1653686 5.561846,14.8619762 6.15429688,15.4609375 C6.74674775,16.0598988 7.44335537,16.5318993 8.24414062,16.8769531 C9.04492588,17.2220069 9.90103711,17.3945312 10.8125,17.3945312 Z"/>
  </g>
</svg>
