<svg xmlns="http://www.w3.org/2000/svg" width="49" height="42" viewBox="0 0 49 42">
  <path d="M33.65625,0.75 C33.328125,0.800781 33.046875,1.011719 32.90625,1.3125 C31.910156,3.28125 32.539063,5.53125 33.5,7.4375 C34.359375,9.140625 35.515625,10.578125 36.5,11.59375 C36.433594,13.144531 35.988281,14.195313 35.28125,14.875 C34.519531,15.609375 33.441406,16 32.125,16 C31.109375,16 30.074219,15.363281 28.875,14.125 C27.675781,12.886719 26.394531,11.128906 24.84375,9.34375 C21.746094,5.769531 17.484375,2 10.6875,2 C7.890625,2 5.429688,2.84375 3.6875,4.5625 C1.96875,6.257813 1.023438,8.753906 1,11.875 C1,11.90625 1,11.9375 1,11.96875 C1,11.980469 1,11.988281 1,12 C0.996094,12.050781 0.996094,12.105469 1,12.15625 C1.019531,15.808594 1.816406,20.554688 4.53125,24.65625 C5.351563,25.898438 6.359375,27.066406 7.5625,28.125 L6.03125,33.71875 C5.957031,34.003906 6.011719,34.304688 6.179688,34.546875 C6.347656,34.789063 6.613281,34.941406 6.90625,34.96875 C6.90625,34.96875 10.921875,35.269531 13.8125,31.6875 C15.410156,32.246094 17.183594,32.660156 19.15625,32.875 L21.125,41.1875 C21.195313,41.46875 21.382813,41.707031 21.640625,41.835938 C21.898438,41.96875 22.199219,41.984375 22.46875,41.875 C22.46875,41.875 24.535156,41.027344 26.0625,38.59375 C27.003906,37.089844 27.699219,34.9375 27.75,32.0625 C32.570313,30.601563 35.902344,27.542969 38.0625,24.09375 C40.058594,20.90625 40.992188,17.472656 41.40625,14.46875 C42.660156,14.730469 43.914063,14.859375 45.09375,14.6875 C46.601563,14.46875 48.023438,13.75 48.84375,12.375 C48.992188,12.121094 49.023438,11.816406 48.925781,11.539063 C48.828125,11.265625 48.617188,11.042969 48.34375,10.9375 C47.597656,10.660156 46.074219,9.53125 44.59375,8.5625 C43.855469,8.078125 43.09375,7.644531 42.34375,7.34375 C41.890625,7.164063 41.398438,7.066406 40.90625,7.0625 C40.351563,5.691406 39.265625,4.558594 38.0625,3.625 C36.578125,2.476563 34.957031,1.480469 34.46875,1.03125 C34.277344,0.84375 34.015625,0.742188 33.75,0.75 C33.71875,0.75 33.6875,0.75 33.65625,0.75 Z M34.53125,3.53125 C35.292969,4.0625 36.003906,4.535156 36.84375,5.1875 C38.199219,6.238281 39.242188,7.460938 39.34375,8.25 C39.382813,8.566406 39.574219,8.839844 39.851563,8.996094 C40.128906,9.148438 40.460938,9.164063 40.75,9.03125 C40.785156,9.015625 41.074219,8.980469 41.59375,9.1875 C42.113281,9.394531 42.804688,9.796875 43.5,10.25 C44.480469,10.894531 45.457031,11.492188 46.4375,12.0625 C46.007813,12.378906 45.496094,12.621094 44.8125,12.71875 C43.707031,12.878906 42.304688,12.703125 40.90625,12.3125 C40.617188,12.226563 40.304688,12.277344 40.058594,12.445313 C39.808594,12.613281 39.648438,12.886719 39.625,13.1875 C39.34375,16.128906 38.390625,19.8125 36.375,23.03125 C34.5,26.027344 31.734375,28.636719 27.6875,30 C27.609375,29.046875 27.476563,28.058594 27.25,26.96875 C29.292969,26.621094 31.15625,25.96875 31.15625,25.96875 C31.691406,25.832031 32.011719,25.285156 31.875,24.75 C31.738281,24.214844 31.191406,23.894531 30.65625,24.03125 C30.570313,24.042969 30.488281,24.0625 30.40625,24.09375 C30.40625,24.09375 28.054688,25.027344 26.03125,25.1875 C25.738281,25.214844 25.472656,25.367188 25.304688,25.609375 C25.136719,25.851563 25.082031,26.152344 25.15625,26.4375 C26.59375,32.25 25.597656,35.585938 24.375,37.53125 C23.820313,38.414063 23.234375,38.929688 22.75,39.3125 L19.40625,25.375 C19.347656,25.003906 19.085938,24.695313 18.726563,24.578125 C18.367188,24.460938 17.972656,24.558594 17.707031,24.824219 C17.441406,25.089844 17.351563,25.484375 17.46875,25.84375 L18.65625,30.78125 C12.316406,29.917969 8.53125,27.058594 6.21875,23.5625 C4.566406,21.0625 3.683594,18.21875 3.28125,15.59375 C3.515625,15.839844 3.753906,16.09375 4.03125,16.34375 C6.25,18.34375 9.984375,20.4375 15.90625,21 C16.457031,21.050781 16.949219,20.644531 17,20.09375 C17.050781,19.542969 16.644531,19.050781 16.09375,19 C10.558594,18.476563 7.289063,16.570313 5.375,14.84375 C3.699219,13.332031 3.125,12.085938 3,11.78125 C3.042969,9.109375 3.828125,7.21875 5.09375,5.96875 C6.394531,4.683594 8.277344,4 10.6875,4 C16.761719,4 20.375,7.230469 23.34375,10.65625 C24.828125,12.371094 26.09375,14.113281 27.4375,15.5 C28.78125,16.886719 30.289063,18 32.125,18 C33.839844,18 35.457031,17.496094 36.65625,16.34375 C37.855469,15.191406 38.5625,13.449219 38.5625,11.28125 C38.570313,11 38.457031,10.726563 38.25,10.53125 C37.390625,9.710938 36.105469,8.164063 35.28125,6.53125 C34.738281,5.453125 34.527344,4.441406 34.53125,3.53125 Z M16,15 C15.449219,15 15,15.449219 15,16 C15,16.550781 15.449219,17 16,17 C16.550781,17 17,16.550781 17,16 C17,15.449219 16.550781,15 16,15 Z M9.28125,29.4375 C10.070313,29.972656 10.917969,30.472656 11.84375,30.90625 C10.535156,32.359375 9.28125,32.726563 8.34375,32.84375 L9.28125,29.4375 Z"/>
</svg>
